<svg xmlns="http://www.w3.org/2000/svg" viewBox="0 0 64 64">
  <defs>
    <radialGradient id="bg" cx="50%" cy="42%" r="70%">
      <stop offset="0%" stop-color="#123d8b"/>
      <stop offset="45%" stop-color="#0b2558"/>
      <stop offset="100%" stop-color="#071631"/>
    </radialGradient>
    <radialGradient id="planet" cx="38%" cy="30%" r="70%">
      <stop offset="0%" stop-color="#b7ffff"/>
      <stop offset="34%" stop-color="#71d9ff"/>
      <stop offset="68%" stop-color="#2f63ff"/>
      <stop offset="100%" stop-color="#1838c7"/>
    </radialGradient>
    <linearGradient id="ring" x1="13" y1="36" x2="52" y2="27" gradientUnits="userSpaceOnUse">
      <stop offset="0%" stop-color="#dbffff"/>
      <stop offset="40%" stop-color="#a6f6df"/>
      <stop offset="100%" stop-color="#7fa1d8"/>
    </linearGradient>
  </defs>
  <rect width="64" height="64" fill="#081a3c"/>
  <rect width="64" height="64" fill="url(#bg)"/>
  <circle cx="32" cy="32" r="17" fill="url(#planet)"/>
  <ellipse cx="32" cy="32" rx="28" ry="9" transform="rotate(-16 32 32)" fill="none" stroke="url(#ring)" stroke-width="4"/>
  <ellipse cx="32" cy="32" rx="28" ry="9" transform="rotate(-16 32 32)" fill="none" stroke="#f4fffb" stroke-width="1" opacity="0.45"/>
  <path d="M13 38c2 2 6 4 10 5 14 5 30 3 38-5-4 8-18 12-31 9-7-1-13-4-17-9z" fill="#071631" opacity="0.55"/>
  <circle cx="27" cy="25" r="4" fill="#ffffff" opacity="0.16"/>
  <circle cx="42" cy="39" r="2.1" fill="#f9c65f" opacity="0.95"/>
  <circle cx="12" cy="13" r="0.8" fill="#c7e4ff" opacity="0.9"/>
  <circle cx="51" cy="12" r="0.7" fill="#c7e4ff" opacity="0.8"/>
  <circle cx="53" cy="52" r="0.8" fill="#c7e4ff" opacity="0.8"/>
</svg>
